<svg xmlns="http://www.w3.org/2000/svg" viewBox="0 0 200 200" fill="none">
  <!-- Top petal (blue) -->
  <path d="M100 10 C100 10, 130 10, 140 30 C150 50, 140 80, 100 100 C60 80, 50 50, 60 30 C70 10, 100 10, 100 10Z" fill="url(#blueGrad)"/>
  <!-- Right petal (gold) -->
  <path d="M190 100 C190 100, 190 130, 170 140 C150 150, 120 140, 100 100 C120 60, 150 50, 170 60 C190 70, 190 100, 190 100Z" fill="url(#goldGrad)"/>
  <!-- Bottom petal (gold) -->
  <path d="M100 190 C100 190, 70 190, 60 170 C50 150, 60 120, 100 100 C140 120, 150 150, 140 170 C130 190, 100 190, 100 190Z" fill="url(#goldGrad2)"/>
  <!-- Left petal (blue) -->
  <path d="M10 100 C10 100, 10 70, 30 60 C50 50, 80 60, 100 100 C80 140, 50 150, 30 140 C10 130, 10 100, 10 100Z" fill="url(#blueGrad2)"/>
  <!-- Center heart -->
  <path d="M100 88 C95 80, 82 78, 82 86 C82 92, 100 108, 100 108 C100 108, 118 92, 118 86 C118 78, 105 80, 100 88Z" fill="white" opacity="0.9"/>
  <defs>
    <linearGradient id="blueGrad" x1="60" y1="10" x2="140" y2="100">
      <stop offset="0%" stop-color="#2D5F9A"/>
      <stop offset="100%" stop-color="#1B2A4A"/>
    </linearGradient>
    <linearGradient id="blueGrad2" x1="10" y1="60" x2="100" y2="140">
      <stop offset="0%" stop-color="#2D5F9A"/>
      <stop offset="100%" stop-color="#1B2A4A"/>
    </linearGradient>
    <linearGradient id="goldGrad" x1="100" y1="50" x2="190" y2="140">
      <stop offset="0%" stop-color="#D4BB7A"/>
      <stop offset="100%" stop-color="#C5A55A"/>
    </linearGradient>
    <linearGradient id="goldGrad2" x1="60" y1="100" x2="140" y2="190">
      <stop offset="0%" stop-color="#C5A55A"/>
      <stop offset="100%" stop-color="#A8893E"/>
    </linearGradient>
  </defs>
</svg>
